<?xml version="1.0" encoding="UTF-8"?>
<svg id="Layer_2" data-name="Layer 2" xmlns="http://www.w3.org/2000/svg" viewBox="0 0 600 386.59">
  <defs>
    <style>
      .cls-1 {
        fill: #ca3c32;
      }

      .cls-2 {
        fill: #9259a3;
      }

      .cls-3 {
        fill: #399746;
      }

      .cls-4 {
        fill: #4d64ae;
      }

      .cls-5 {
        fill: #1a1a1a;
      }
    </style>
  </defs>
  <g id="Layer_1-2" data-name="Layer 1">
    <g>
      <path class="cls-5" d="M364.93,317.12h-50.94V82.79l50.94-14.02v248.36Z"/>
      <path class="cls-4" d="M86.88,142.34c-19.26,0-34.87-15.61-34.87-34.87s15.61-34.88,34.87-34.88h0c19.26,0,34.87,15.61,34.87,34.88s-15.61,34.87-34.87,34.87Z"/>
      <path class="cls-5" d="M114.18,316.69c.42,12.18-1.32,24.34-5.12,35.93-2.72,8.22-7.63,15.53-14.2,21.16-6.37,5.22-13.98,8.73-22.09,10.19-9.45,1.84-19.06,2.71-28.69,2.62-6.33.06-12.64-.56-18.84-1.85-4.84-.98-9.52-2.65-13.87-4.97-3.33-1.73-6.21-4.22-8.38-7.29-1.91-2.45-2.96-5.47-2.99-8.58-.08-5.14,2.22-10.03,6.23-13.25,4.84-3.75,10.87-5.63,16.97-5.28,2.5-.06,4.99.37,7.33,1.25,2,.78,3.88,1.81,5.6,3.09,1.6,1.3,3.12,2.7,4.55,4.2,1.21,1.56,2.3,3.01,3.25,4.37,1.67,2.31,3.66,4.35,5.91,6.09,1.33.92,2.89,1.46,4.5,1.56,1.39.02,2.75-.37,3.93-1.1,1.32-.98,2.29-2.35,2.79-3.91.85-2.41,1.37-4.94,1.56-7.49.48-3.98.67-7.99.63-11.99v-182.85l50.94-14.02v172.12h0ZM188.61,148.65v117.77c-.01,3.21.61,6.39,1.84,9.36,1.38,2.72,3.21,5.18,5.45,7.25,2.31,2.09,4.96,3.77,7.84,4.97,2.98,1.25,6.17,1.89,9.4,1.88,2.19-.1,4.34-.62,6.31-1.56,2.53-1.16,4.89-2.63,7.05-4.39,2.56-1.95,4.94-4.13,7.09-6.5,2.38-2.54,4.5-5.31,6.31-8.27v-120.51h50.94v168.47h-50.94v-15.68c-6.39,5.61-13.55,10.27-21.27,13.82-6.86,3.21-14.33,4.92-21.9,5.03-7.88.11-15.72-1.22-23.13-3.92-6.84-2.63-13.15-6.46-18.64-11.32-5.21-4.71-9.43-10.41-12.42-16.76-3.01-6.49-4.54-13.57-4.5-20.73v-118.91h50.58Z"/>
      <path class="cls-1" d="M414.49,142.34c-19.26.34-35.15-14.99-35.49-34.25-.34-19.26,14.99-35.15,34.25-35.49.44,0,.88,0,1.32,0,19.26.02,34.86,15.65,34.84,34.91-.02,19.26-15.65,34.86-34.91,34.84h0Z"/>
      <path class="cls-2" d="M498.29,142.34c-19.26.34-35.15-14.99-35.49-34.25-.34-19.26,14.99-35.15,34.25-35.49.44,0,.88,0,1.32,0,19.26.02,34.86,15.65,34.84,34.91-.02,19.26-15.65,34.86-34.91,34.84h0Z"/>
      <path class="cls-3" d="M456.4,69.75c-19.26,0-34.88-15.61-34.88-34.87S437.14,0,456.4,0s34.88,15.61,34.88,34.88-15.61,34.87-34.88,34.87Z"/>
      <path class="cls-5" d="M392.35,159.07l50.93-14.02v172.07h-50.93v-158.05ZM549.06,230.25c-5.05,2.17-9.99,4.62-14.76,7.34-4.8,2.56-9.34,5.58-13.56,9-3.81,3-7.19,6.52-10,10.48-2.46,3.34-3.82,7.36-3.91,11.51,0,3.1.43,6.19,1.25,9.18.76,2.65,1.91,5.18,3.41,7.47,1.31,1.92,2.95,3.61,4.83,4.97,1.74,1.21,3.8,1.88,5.91,1.88,4.44-.15,8.74-1.5,12.46-3.91,4.9-2.96,9.63-6.2,14.19-9.67l.19-48.23h0ZM600,317.12h-50.94v-13.4c-2.66,2.29-5.42,4.47-8.26,6.54-2.83,2.04-5.84,3.81-9,5.29-3.55,1.55-7.26,2.71-11.06,3.45-4.87.87-9.85,1.29-14.81,1.21-7.09.11-14.15-.99-20.87-3.25-5.75-1.99-11.07-5.06-15.68-9.05-4.23-3.85-7.58-8.57-9.84-13.82-2.29-5.42-3.45-11.24-3.4-17.12-.11-5.96,1.11-11.88,3.56-17.31,2.51-5.2,5.9-9.92,10-14,4.44-4.32,9.39-8.08,14.75-11.2,5.88-3.4,11.96-6.42,18.23-9.05,6.66-2.73,13.41-5.23,20.25-7.49l20.57-6.69,5.6-1.22v-16.69c.09-4.56-.48-9.12-1.71-13.51-.8-3.32-2.34-6.41-4.5-9.05-1.81-2.34-4.25-4.12-7.03-5.14-2.93-1.07-6.04-1.6-9.16-1.56-3.45-.09-6.89.44-10.15,1.56-2.49.92-4.73,2.41-6.55,4.35-1.66,1.76-2.87,3.9-3.56,6.22-.77,2.54-1.14,5.18-1.1,7.84.02,3.1-.35,6.2-1.09,9.21-.58,2.85-1.8,5.53-3.57,7.84-1.88,2.22-4.29,3.94-7,5-3.6,1.5-7.47,2.2-11.37,2.05-3.34.04-6.66-.49-9.82-1.56-2.75-1.03-5.3-2.56-7.5-4.51-2.06-1.97-3.74-4.29-4.96-6.86-1.14-2.7-1.73-5.6-1.73-8.54.04-5.87,2.12-11.56,5.91-16.06,4.37-5.33,9.8-9.72,15.91-12.93,7.32-3.83,15.12-6.65,23.19-8.39,9.15-2.11,18.51-3.16,27.9-3.12,10.38-.19,20.73.92,30.84,3.27,7.67,1.72,14.96,4.83,21.5,9.17,5.32,3.63,9.63,8.56,12.46,14.34,2.72,5.9,4.06,12.35,3.92,18.85l.08,125.34Z"/>
    </g>
  </g>
</svg>